<mxfile host="app.diagrams.net" modified="2022-12-04T04:56:08.280Z" agent="5.0 (Windows NT 10.0; Win64; x64) AppleWebKit/537.36 (KHTML, like Gecko) Chrome/108.0.0.0 Safari/537.36" etag="Ok5rXEiIWBdkVl-gVXhY" version="20.5.1" type="github">
  <diagram id="7QcRPGXFzInOJEVMT8tc" name="第 1 页">
    <mxGraphModel dx="5880" dy="7360" grid="1" gridSize="10" guides="1" tooltips="1" connect="1" arrows="1" fold="1" page="1" pageScale="1" pageWidth="827" pageHeight="1169" math="0" shadow="0">
      <root>
        <mxCell id="0" />
        <mxCell id="1" parent="0" />
        <mxCell id="h-tzGT9LXIcgPgCWatGE-11" value="" style="rounded=0;whiteSpace=wrap;html=1;" vertex="1" parent="1">
          <mxGeometry x="1444" y="4160" width="1500" height="60" as="geometry" />
        </mxCell>
        <mxCell id="h-tzGT9LXIcgPgCWatGE-2" value="" style="rounded=0;whiteSpace=wrap;html=1;" vertex="1" parent="1">
          <mxGeometry x="650" y="640" width="3088" height="3550" as="geometry" />
        </mxCell>
        <mxCell id="h-tzGT9LXIcgPgCWatGE-3" value="" style="rounded=0;whiteSpace=wrap;html=1;direction=west;" vertex="1" parent="1">
          <mxGeometry x="650" y="640" width="2200" height="1500" as="geometry" />
        </mxCell>
        <mxCell id="h-tzGT9LXIcgPgCWatGE-4" value="" style="rounded=0;whiteSpace=wrap;html=1;direction=south;" vertex="1" parent="1">
          <mxGeometry x="650" y="2140" width="600" height="1100" as="geometry" />
        </mxCell>
        <mxCell id="h-tzGT9LXIcgPgCWatGE-9" value="" style="whiteSpace=wrap;html=1;aspect=fixed;" vertex="1" parent="1">
          <mxGeometry x="2929" y="640" width="800" height="800" as="geometry" />
        </mxCell>
        <mxCell id="h-tzGT9LXIcgPgCWatGE-14" value="" style="group" vertex="1" connectable="0" parent="1">
          <mxGeometry x="2038" y="2790" width="1700" height="1400" as="geometry" />
        </mxCell>
        <mxCell id="h-tzGT9LXIcgPgCWatGE-10" value="" style="rounded=0;whiteSpace=wrap;html=1;direction=south;" vertex="1" parent="h-tzGT9LXIcgPgCWatGE-14">
          <mxGeometry x="1000" width="700" height="1400" as="geometry" />
        </mxCell>
        <mxCell id="h-tzGT9LXIcgPgCWatGE-13" value="" style="ellipse;whiteSpace=wrap;html=1;aspect=fixed;" vertex="1" parent="h-tzGT9LXIcgPgCWatGE-14">
          <mxGeometry x="192" y="300" width="800" height="800" as="geometry" />
        </mxCell>
        <mxCell id="h-tzGT9LXIcgPgCWatGE-16" value="" style="ellipse;whiteSpace=wrap;html=1;aspect=fixed;" vertex="1" parent="h-tzGT9LXIcgPgCWatGE-14">
          <mxGeometry x="700" y="1100" width="300" height="300" as="geometry" />
        </mxCell>
        <mxCell id="h-tzGT9LXIcgPgCWatGE-15" value="" style="ellipse;whiteSpace=wrap;html=1;aspect=fixed;" vertex="1" parent="1">
          <mxGeometry x="3338" y="2390" width="400" height="400" as="geometry" />
        </mxCell>
        <mxCell id="h-tzGT9LXIcgPgCWatGE-20" value="" style="rounded=0;whiteSpace=wrap;html=1;" vertex="1" parent="1">
          <mxGeometry x="650" y="3230" width="600" height="960" as="geometry" />
        </mxCell>
        <mxCell id="h-tzGT9LXIcgPgCWatGE-21" value="" style="rounded=0;whiteSpace=wrap;html=1;" vertex="1" parent="1">
          <mxGeometry x="5054" y="4160" width="1500" height="60" as="geometry" />
        </mxCell>
        <mxCell id="h-tzGT9LXIcgPgCWatGE-22" value="" style="rounded=0;whiteSpace=wrap;html=1;" vertex="1" parent="1">
          <mxGeometry x="4260" y="640" width="3088" height="3550" as="geometry" />
        </mxCell>
        <mxCell id="h-tzGT9LXIcgPgCWatGE-23" value="" style="rounded=0;whiteSpace=wrap;html=1;direction=west;" vertex="1" parent="1">
          <mxGeometry x="4260" y="1860" width="2100" height="1500" as="geometry" />
        </mxCell>
        <mxCell id="h-tzGT9LXIcgPgCWatGE-24" value="" style="rounded=0;whiteSpace=wrap;html=1;direction=west;" vertex="1" parent="1">
          <mxGeometry x="4260" y="640" width="1100" height="600" as="geometry" />
        </mxCell>
        <mxCell id="h-tzGT9LXIcgPgCWatGE-25" value="" style="whiteSpace=wrap;html=1;aspect=fixed;" vertex="1" parent="1">
          <mxGeometry x="6548" y="640" width="800" height="800" as="geometry" />
        </mxCell>
      </root>
    </mxGraphModel>
  </diagram>
</mxfile>
